<?xml version="1.0" encoding="UTF-8"?>
<!DOCTYPE svg PUBLIC "-//W3C//DTD SVG 1.1//EN" "http://www.w3.org/Graphics/SVG/1.1/DTD/svg11.dtd">
<!-- Creator: CorelDRAW X7 -->
<svg xmlns="http://www.w3.org/2000/svg" xml:space="preserve" width="353.219mm" height="120.121mm" version="1.1" style="shape-rendering:geometricPrecision; text-rendering:geometricPrecision; image-rendering:optimizeQuality; fill-rule:evenodd; clip-rule:evenodd"
viewBox="0 0 35322 12012"
 xmlns:xlink="http://www.w3.org/1999/xlink">
 <defs>
  <style type="text/css">
   <![CDATA[
    .fil2 {fill:#0DAC96;fill-rule:nonzero}
    .fil0 {fill:#A82582;fill-rule:nonzero}
    .fil1 {fill:#FFCC01;fill-rule:nonzero}
   ]]>
  </style>
 </defs>
 <g id="Layer_x0020_1">
  <metadata id="CorelCorpID_0Corel-Layer"/>
  <path class="fil0" d="M32805 5017c11,143 17,285 17,426 0,141 -3,283 -9,427 -5,236 -14,470 -25,703 -11,233 -22,468 -33,703 0,41 -3,81 -8,119 -6,39 -8,78 -8,119 -11,149 -18,280 -21,392 -3,113 -10,244 -21,392 0,5 0,21 0,46 0,26 -3,54 -8,85 -6,31 -18,59 -37,84 -20,26 -49,39 -88,39 -83,5 -171,5 -265,0 -94,-5 -181,-19 -261,-42 -80,-23 -145,-55 -195,-96 -50,-41 -72,-95 -67,-162 0,-36 2,-70 5,-104 2,-33 6,-70 12,-111 -72,0 -144,-3 -216,-8 -72,-5 -132,-10 -182,-15 -61,0 -133,-5 -216,-15 -83,-11 -162,-22 -236,-35 -75,-13 -140,-26 -195,-38 -55,-13 -86,-20 -91,-20 -172,-56 -309,-130 -411,-223 -102,-92 -189,-192 -261,-299 -67,-103 -108,-214 -125,-335 -16,-120 -14,-254 9,-403 16,-118 51,-219 103,-304 53,-84 121,-165 203,-242 45,-41 111,-88 200,-142 88,-54 154,-91 199,-111 127,-57 247,-92 360,-108 114,-15 259,-33 436,-54 144,-10 258,-18 344,-23 86,-5 176,-2 270,8 0,-20 1,-40 4,-58 3,-18 4,-37 4,-57 11,-113 7,-244 -12,-392 -20,-149 -46,-274 -79,-377 -17,-41 -31,-79 -42,-115 -11,-36 -33,-85 -66,-146 -44,-62 -86,-109 -124,-142 -39,-34 -94,-48 -166,-42 -50,0 -94,14 -133,42 -39,28 -72,60 -100,96 -27,36 -49,72 -66,107 -17,36 -28,62 -33,77 -28,62 -50,134 -66,215 -17,82 -31,167 -42,254 -5,36 -14,69 -25,100 -11,31 -32,55 -62,73 -30,18 -77,31 -141,38 -64,8 -151,7 -261,-3 -94,-6 -165,-26 -212,-62 -47,-36 -80,-77 -99,-123 -20,-46 -28,-93 -25,-142 2,-49 4,-94 4,-135 0,-25 1,-47 4,-65 3,-18 7,-40 12,-65 23,-179 56,-325 100,-438 44,-113 86,-200 124,-261 39,-62 74,-109 104,-143 30,-33 60,-62 87,-88 89,-77 174,-143 257,-200 83,-56 180,-97 291,-123 143,-25 284,-32 423,-19 138,13 271,55 398,127 27,15 57,31 87,46 30,15 59,33 87,54 89,46 160,103 216,173 55,69 105,147 149,234 66,143 115,291 145,442 31,151 57,306 79,465z"/>
  <path class="fil1" d="M29835 2980c5,26 9,52 11,79 3,26 -1,52 -11,78 -26,99 -41,197 -46,296 -5,99 -15,201 -31,305 -10,36 -17,73 -22,109 -5,37 -13,76 -23,117 -26,94 -51,188 -76,282 -26,93 -51,190 -77,288 -5,16 -20,85 -45,207 -26,123 -56,272 -92,449 -35,177 -73,367 -114,571 -40,203 -79,394 -114,574 -36,179 -66,333 -91,460 -26,128 -41,205 -46,231 -41,182 -90,359 -149,531 -58,171 -100,348 -125,531 -5,36 -13,83 -23,140 -10,58 -22,115 -34,172 -13,57 -26,109 -38,156 -13,47 -19,78 -19,94 0,16 -8,38 -23,66 -16,29 -38,58 -69,86 -30,29 -70,54 -118,74 -48,21 -110,32 -186,32l-54 0c-91,0 -164,-15 -217,-43 -53,-29 -92,-61 -118,-98 -25,-36 -42,-73 -49,-109 -8,-37 -12,-63 -12,-78 0,-16 -12,-68 -38,-156 -25,-89 -53,-187 -84,-293 -30,-107 -58,-210 -83,-309 -26,-99 -41,-166 -46,-203 -25,-182 -62,-345 -110,-488 -49,-143 -93,-306 -134,-488 -10,-73 -23,-147 -38,-223 -15,-75 -28,-149 -38,-222 -15,-109 -38,-219 -68,-328 -16,-57 -31,-111 -46,-160 -15,-50 -28,-103 -38,-160 -21,-120 -43,-241 -69,-363 -25,-123 -43,-244 -53,-364 -5,-52 -13,-101 -23,-148 -10,-47 -20,-94 -30,-141 -26,-98 -51,-195 -77,-288 -25,-94 -50,-188 -76,-282 -10,-41 -17,-80 -23,-117 -5,-36 -10,-73 -15,-109 -15,-104 -26,-206 -34,-305 -8,-99 -24,-197 -50,-296 -10,-26 -12,-52 -7,-78 5,-27 7,-53 7,-79 6,-46 33,-70 84,-70 71,0 141,1 210,4 68,3 138,4 209,4 0,5 32,9 95,12 64,2 116,6 156,11 92,6 153,55 183,149 10,36 19,71 27,105 7,34 16,69 26,106l160 726c21,99 40,196 57,293 18,96 35,196 50,300 15,146 33,292 53,438 21,145 46,291 76,437 26,120 50,238 73,355 23,117 47,236 72,356 10,47 20,93 31,140 10,47 20,94 30,141 10,-47 20,-94 31,-141 10,-47 20,-93 30,-140 25,-120 49,-239 72,-356 23,-117 47,-235 73,-355 30,-146 56,-292 76,-437 20,-146 40,-292 61,-438 10,-104 24,-204 42,-300 17,-97 39,-194 64,-293 26,-120 51,-241 77,-363 25,-123 50,-244 76,-363 10,-37 20,-72 30,-106 10,-34 20,-69 31,-105 25,-89 83,-138 175,-149 40,-5 92,-9 156,-11 63,-3 95,-7 95,-12 71,0 141,-1 209,-4 69,-3 139,-4 210,-4 46,0 73,24 84,70z"/>
  <path class="fil1" d="M24539 4199c6,115 8,239 8,372 0,134 -1,265 -4,393 -2,128 -5,241 -8,339 -3,99 -4,167 -4,205 0,65 1,162 4,290 3,128 4,259 4,393 0,134 0,254 0,360 0,106 -3,168 -8,184 0,22 -3,82 -8,180 -6,98 -10,204 -12,319 -3,114 -6,221 -9,319 -2,98 -4,155 -4,172 -5,43 -9,86 -12,127 -3,40 -7,80 -12,118 0,22 -6,44 -17,66 -11,27 -30,40 -57,40 -16,0 -45,0 -86,0 -41,0 -86,-4 -135,-12 -49,-8 -99,-16 -151,-24 -52,-9 -94,-21 -127,-37 -22,-11 -65,-29 -131,-53 -65,-25 -152,-67 -262,-127 -120,-71 -214,-145 -282,-221 -68,-76 -127,-153 -176,-229 -76,-93 -133,-175 -171,-245 -39,-71 -80,-169 -123,-295 -17,-49 -30,-117 -41,-204 -11,-88 -22,-176 -33,-266 -11,-90 -20,-173 -28,-250 -9,-76 -13,-128 -13,-155 -11,-104 -9,-205 4,-303 14,-98 32,-199 54,-303 10,-49 23,-99 36,-151 14,-52 29,-105 45,-159 22,-66 54,-139 94,-221 41,-82 89,-164 144,-246 43,-60 80,-109 110,-147 30,-38 60,-74 90,-106 30,-33 61,-63 94,-90 33,-28 71,-60 115,-98 92,-60 199,-124 319,-193 120,-68 240,-113 360,-135 109,-5 200,-11 274,-16 73,-5 107,5 102,33 16,11 29,35 37,73 8,39 13,79 16,123 3,44 4,83 4,119 0,35 0,56 0,61z"/>
  <path class="fil0" d="M26699 5901c5,103 1,205 -13,306 -13,101 -31,201 -53,299 -11,54 -23,106 -36,155 -14,49 -29,101 -45,156 -22,65 -54,139 -95,221 -40,81 -85,163 -135,245 -43,60 -81,110 -114,151 -33,41 -63,77 -90,107 -27,30 -57,58 -90,86 -33,27 -74,60 -123,98 -92,60 -197,124 -315,192 -117,68 -236,113 -356,135 -109,11 -200,18 -274,20 -73,3 -110,-6 -110,-28 -16,-11 -29,-37 -37,-78 -8,-41 -13,-82 -16,-123 -3,-41 -4,-79 -4,-114 0,-36 0,-56 0,-62 -6,-114 -8,-238 -8,-372 0,-133 1,-264 4,-392 2,-129 5,-242 8,-340 3,-98 4,-166 4,-204 0,-66 -1,-164 -4,-295 -3,-131 -4,-263 -4,-397 0,-133 1,-252 4,-355 3,-104 4,-164 4,-180 0,-22 3,-84 8,-184 6,-101 10,-209 12,-324 3,-114 7,-220 13,-319 5,-98 8,-155 8,-171 5,-39 9,-78 12,-119 3,-41 7,-83 12,-127 0,-33 3,-54 9,-65 10,-28 30,-41 57,-41 38,-6 113,-2 225,12 112,14 203,34 274,61 22,11 65,29 131,54 65,24 152,66 261,126 120,71 215,146 283,225 68,79 129,154 184,225 76,93 133,176 172,250 38,73 76,170 114,290 16,49 31,117 45,205 14,87 26,176 37,266 11,90 20,174 28,253 9,79 13,130 13,152z"/>
  <path class="fil2" d="M20564 5472c-21,-11 -33,6 -38,53 -5,47 -7,108 -4,184 2,76 6,155 11,237 5,82 10,152 15,211 6,99 7,195 4,289 -2,94 -1,190 4,290 0,46 1,133 4,258 2,126 5,259 7,399 3,141 5,269 8,386 3,117 4,190 4,220 0,52 0,105 0,158 0,52 2,105 7,158 0,87 -20,178 -60,271 -15,59 -56,91 -122,97 -121,12 -226,16 -314,13 -89,-3 -181,-19 -277,-48 -26,-6 -59,-21 -99,-44 -35,-18 -58,-50 -68,-96 0,-6 1,-41 4,-106 2,-64 5,-134 7,-210 3,-76 5,-146 8,-211 2,-64 3,-99 3,-105 0,-41 3,-129 8,-263 5,-135 9,-287 11,-456 3,-170 5,-347 8,-531 3,-184 1,-347 -4,-487 -5,-58 -10,-161 -15,-307 -5,-146 -9,-301 -11,-465 -3,-164 -5,-314 -8,-452 -2,-137 -4,-229 -4,-276 0,-64 2,-129 4,-193 3,-64 1,-129 -4,-193 -10,-82 -15,-165 -15,-250 0,-85 0,-171 0,-259l0 -412c-5,-47 -5,-91 0,-132 5,-41 13,-84 23,-131 10,-53 35,-82 76,-88 81,-41 154,-61 220,-61l493 0c50,0 88,3 114,8 35,12 64,49 87,110 23,61 43,132 61,211 17,79 32,159 45,241 13,82 27,149 42,202 40,117 77,232 110,346 33,114 62,230 87,347 5,41 29,141 72,302 43,161 89,336 137,527 48,190 95,371 140,543 46,173 76,286 91,338 20,76 48,161 83,255 16,17 26,7 31,-31 5,-38 7,-95 7,-171 0,-76 -1,-161 -3,-255 -3,-93 -7,-187 -12,-280 5,-70 7,-147 4,-228 -2,-82 -1,-199 4,-351 0,-35 0,-87 0,-154 0,-67 0,-137 0,-210 0,-73 0,-144 0,-211 0,-67 0,-118 0,-153 0,-100 -4,-189 -12,-268 -7,-79 -11,-174 -11,-285l0 -553c0,-17 0,-36 0,-57 0,-20 3,-39 8,-57 0,-29 10,-57 30,-83 20,-26 71,-45 152,-57 20,-6 52,-12 95,-18 43,-5 89,-11 140,-17 50,-6 100,-9 148,-9 48,0 90,3 125,9 71,0 123,22 156,66 32,44 46,92 41,144 -30,228 -45,457 -45,685 0,163 0,315 0,456 0,140 -3,278 -8,412 -5,135 -9,272 -11,412 -3,141 -4,293 -4,457 0,29 -1,95 -4,197 -2,102 -6,213 -11,333 -5,120 -9,231 -12,334 -2,102 -3,168 -3,197 0,134 2,292 7,474 5,181 3,374 -7,579 5,76 7,160 7,254 0,94 0,184 0,272 0,88 -2,165 -7,232 -5,68 -10,110 -15,128 -11,41 -40,68 -88,83 -48,15 -92,22 -133,22 -10,6 -30,9 -60,9 -31,0 -51,3 -61,8 -50,0 -92,0 -125,0 -33,0 -66,-1 -99,-4 -33,-3 -65,-6 -98,-9 -33,-3 -75,-10 -126,-22 -25,-6 -48,-11 -68,-17 -20,-6 -40,-15 -60,-27 -81,-35 -124,-93 -129,-175 -11,-134 -33,-268 -69,-399 -35,-132 -63,-265 -83,-399 -36,-263 -89,-518 -159,-763 -71,-246 -134,-498 -190,-755 -25,-105 -56,-209 -91,-311 -36,-103 -71,-206 -106,-312z"/>
  <path class="fil1" d="M14360 4671c-65,-22 -95,-65 -90,-129 5,-59 10,-100 15,-124 5,-24 5,-69 0,-133 -5,-48 -10,-98 -15,-148 -5,-51 -12,-82 -22,-93 -15,-27 -33,-55 -53,-84 -20,-30 -50,-58 -90,-85 -45,-32 -110,-44 -195,-36 -85,8 -154,39 -209,93 -25,27 -44,60 -57,100 -12,40 -21,83 -26,129 -5,45 -5,89 0,132 5,43 10,78 15,105 15,80 38,159 68,237 30,77 72,151 127,220 55,65 107,130 157,197 50,67 100,133 150,197 35,43 68,86 98,129 30,42 60,85 90,128 70,91 125,163 165,217 40,54 87,110 142,169 315,369 495,779 540,1229 5,112 5,225 0,337 -25,268 -152,490 -382,667 -15,10 -32,24 -49,40 -18,16 -36,29 -56,40 -70,48 -147,87 -229,117 -82,29 -171,44 -266,44 -95,0 -189,-3 -281,-8 -93,-6 -184,-22 -274,-49 -70,-16 -131,-38 -184,-68 -52,-29 -111,-68 -176,-116 -50,-43 -100,-86 -150,-129 -50,-43 -92,-94 -127,-152 -10,-16 -20,-33 -30,-49 -10,-16 -18,-32 -23,-48 -40,-96 -73,-191 -101,-285 -27,-94 -41,-194 -41,-301 0,-48 1,-103 4,-165 2,-61 7,-120 15,-177 7,-56 13,-104 18,-144 5,-40 10,-66 15,-76 35,-70 95,-105 180,-105 35,0 60,3 75,8 70,11 140,24 210,40 70,16 140,38 210,65 80,21 113,69 98,144 -5,59 -12,121 -19,185 -8,64 -9,134 -4,209 10,85 21,162 34,229 12,67 46,122 101,164 50,43 119,71 206,85 88,13 174,-4 259,-53 55,-37 99,-89 131,-156 33,-67 49,-133 49,-197 5,-75 -5,-154 -30,-237 -25,-83 -58,-159 -98,-229 -45,-75 -92,-150 -142,-225 -50,-75 -105,-150 -165,-225 -50,-64 -98,-131 -143,-200 -44,-70 -89,-140 -134,-209 -35,-54 -69,-106 -102,-157 -32,-51 -68,-100 -108,-149 -65,-91 -119,-170 -162,-237 -42,-66 -86,-140 -131,-220 -10,-22 -21,-43 -34,-65 -12,-21 -26,-40 -41,-56 -95,-128 -162,-264 -202,-406 -40,-141 -65,-287 -75,-437 -10,-91 -10,-178 0,-261 10,-83 27,-168 52,-253 40,-129 113,-231 218,-306 150,-107 330,-176 540,-208 159,-22 323,-22 491,0 167,21 318,69 453,144 75,54 143,111 203,173 60,61 110,135 150,221 30,53 50,109 60,168 10,59 20,118 30,177 0,32 1,58 3,76 3,19 5,38 8,57 2,18 5,40 7,64 3,24 4,60 4,108 -5,6 -6,28 -4,69 3,40 4,65 4,76 -5,155 -97,233 -277,233 -15,0 -42,-1 -79,-4 -38,-3 -78,-6 -120,-8 -43,-3 -82,-7 -120,-12 -37,-6 -64,-8 -79,-8z"/>
  <path class="fil2" d="M11615 4591c-65,-24 -95,-70 -90,-140 5,-64 10,-110 15,-136 5,-26 5,-74 0,-144 -5,-53 -10,-107 -15,-162 -5,-56 -12,-89 -22,-101 -15,-29 -33,-60 -53,-92 -20,-32 -50,-62 -90,-91 -45,-35 -110,-49 -194,-40 -85,9 -155,42 -210,101 -25,29 -44,65 -57,109 -12,44 -21,91 -26,140 -5,50 -5,98 0,144 5,47 10,85 15,114 15,88 38,174 68,258 30,85 72,165 127,241 55,70 108,141 157,214 50,73 100,145 150,215 35,46 68,93 98,140 30,46 60,93 90,140 70,99 125,177 165,236 40,58 87,119 142,184 315,402 495,848 540,1338 5,123 5,245 0,368 -25,291 -152,533 -382,726 -15,11 -32,26 -49,44 -17,17 -36,32 -56,43 -70,53 -146,95 -229,127 -82,32 -171,48 -266,48 -95,0 -189,-3 -281,-8 -93,-6 -184,-24 -274,-53 -70,-17 -131,-42 -184,-74 -52,-32 -111,-75 -176,-127 -50,-47 -100,-94 -150,-140 -50,-47 -92,-102 -127,-166 -10,-18 -20,-35 -30,-53 -10,-17 -18,-35 -23,-52 -40,-105 -73,-209 -101,-311 -27,-102 -41,-211 -41,-328 0,-53 1,-112 4,-179 2,-68 7,-132 15,-193 7,-61 13,-114 18,-157 5,-44 10,-72 15,-84 35,-75 95,-113 180,-113 35,0 60,3 75,9 70,11 140,26 210,43 70,18 140,41 210,70 80,24 113,76 98,158 -5,64 -12,131 -19,201 -8,70 -9,146 -4,227 10,94 21,177 34,250 12,73 46,132 101,179 50,47 119,77 206,92 88,15 174,-4 259,-57 55,-41 99,-98 131,-170 33,-73 49,-145 49,-215 5,-81 -5,-168 -30,-258 -25,-90 -58,-173 -98,-249 -45,-82 -92,-164 -142,-245 -50,-82 -105,-164 -165,-245 -50,-70 -97,-143 -142,-219 -45,-76 -90,-152 -135,-227 -35,-59 -69,-116 -102,-171 -32,-55 -68,-109 -108,-162 -65,-99 -119,-185 -162,-258 -42,-73 -86,-153 -131,-241 -10,-23 -21,-46 -33,-70 -13,-23 -27,-43 -42,-61 -95,-140 -162,-287 -202,-442 -40,-154 -65,-313 -75,-477 -10,-99 -10,-193 0,-284 10,-90 27,-182 52,-275 40,-140 113,-251 218,-333 150,-117 330,-192 540,-227 160,-24 323,-24 491,0 167,23 318,75 453,157 75,58 143,121 203,188 60,67 110,147 150,241 30,58 50,119 60,184 10,64 20,128 30,192 0,35 1,63 3,83 3,21 5,41 8,61 2,21 5,44 7,70 3,27 4,66 4,118 -5,6 -6,31 -4,75 3,44 4,71 4,83 -5,169 -97,254 -277,254 -15,0 -41,-2 -79,-5 -37,-3 -77,-6 -120,-8 -42,-3 -82,-8 -120,-14 -37,-5 -64,-8 -79,-8z"/>
  <path class="fil2" d="M7756 4065c5,114 8,238 8,372 0,134 -1,265 -4,393 -3,128 -5,241 -8,339 -3,98 -4,167 -4,205 0,65 1,162 4,290 3,128 4,259 4,393 0,133 0,253 0,360 0,106 -3,167 -8,184 0,22 -3,82 -8,180 -6,98 -10,204 -13,319 -2,114 -5,221 -8,319 -3,98 -4,155 -4,172 -5,43 -9,85 -12,126 -3,41 -7,81 -12,119 0,22 -6,44 -17,65 -11,28 -30,41 -57,41 -16,0 -45,0 -86,0 -41,0 -86,-4 -135,-12 -49,-8 -99,-16 -151,-24 -52,-9 -94,-21 -127,-37 -22,-11 -65,-29 -131,-53 -65,-25 -153,-67 -262,-127 -120,-71 -214,-145 -282,-221 -68,-76 -127,-153 -176,-229 -76,-93 -133,-175 -172,-246 -38,-70 -79,-169 -122,-294 -17,-49 -30,-117 -41,-205 -11,-87 -22,-175 -33,-265 -11,-90 -20,-174 -29,-250 -8,-76 -12,-128 -12,-155 -11,-104 -9,-205 4,-303 14,-98 32,-199 53,-303 11,-49 24,-99 37,-151 14,-52 29,-105 45,-160 22,-65 53,-139 94,-220 41,-82 89,-164 143,-246 44,-60 81,-109 111,-147 30,-38 60,-74 90,-106 30,-33 61,-63 94,-90 33,-28 71,-60 115,-99 92,-60 199,-124 319,-192 120,-68 239,-113 359,-135 110,-5 201,-11 275,-16 73,-6 107,5 102,33 16,11 28,35 37,73 8,38 13,79 16,123 3,44 4,83 4,119 0,35 0,55 0,61z"/>
  <path class="fil1" d="M9916 5766c5,104 1,206 -13,307 -13,101 -31,201 -53,299 -11,54 -23,106 -37,155 -13,49 -28,101 -45,156 -21,65 -53,139 -94,220 -41,82 -86,164 -135,246 -43,60 -81,110 -114,151 -33,41 -63,77 -90,107 -27,30 -57,58 -90,85 -33,28 -74,60 -123,99 -93,60 -198,124 -315,192 -117,68 -236,113 -356,135 -109,11 -200,18 -274,20 -73,3 -110,-7 -110,-28 -16,-11 -29,-37 -37,-78 -8,-41 -14,-82 -16,-123 -3,-41 -4,-79 -4,-114 0,-36 0,-56 0,-62 -6,-114 -9,-238 -9,-372 0,-133 2,-264 5,-393 2,-128 5,-241 8,-339 2,-98 4,-166 4,-205 0,-65 -2,-163 -4,-294 -3,-131 -4,-263 -4,-397 0,-133 1,-252 4,-356 2,-103 4,-163 4,-180 0,-21 3,-83 8,-184 5,-101 10,-208 12,-323 3,-114 7,-221 13,-319 5,-98 8,-155 8,-172 5,-38 9,-77 12,-118 3,-41 7,-83 12,-127 0,-33 3,-54 8,-65 11,-28 30,-41 58,-41 38,-6 113,-2 225,12 111,14 203,34 274,61 21,11 65,29 131,53 65,25 152,67 261,127 120,71 214,146 283,225 68,79 129,154 184,225 76,93 133,176 171,250 39,73 77,170 115,290 16,49 31,117 45,205 14,87 26,175 37,265 11,90 20,175 28,254 9,79 13,130 13,151z"/>
  <path class="fil0" d="M3855 5289c-72,0 -122,-12 -149,-35 -28,-23 -47,-67 -59,-132 -7,-46 -8,-90 -5,-131 3,-41 1,-85 -5,-132 13,-210 19,-421 19,-631 0,-211 0,-421 0,-632 0,-70 3,-141 9,-214 6,-74 15,-145 27,-215 24,-158 124,-246 299,-263 127,-18 250,-19 368,-5 118,15 234,54 349,119 18,11 38,20 59,26 21,6 41,14 59,26 266,117 466,310 599,579 24,47 44,96 59,149 15,53 23,105 23,158 0,76 3,151 9,224 6,73 -3,147 -27,223 -37,94 -80,180 -132,259 -51,79 -116,153 -195,224 -79,58 -141,106 -186,144 -45,38 -113,78 -204,119 -79,35 -148,61 -209,79 -60,17 -148,35 -263,52 -85,6 -166,9 -245,9 -79,0 -145,0 -200,0zm1725 1166c66,147 99,296 99,448 0,99 -9,216 -27,351 -18,134 -72,269 -163,403 -73,111 -147,202 -223,272 -75,70 -164,134 -267,193 -31,17 -90,51 -177,101 -88,49 -180,95 -277,136 -54,23 -133,48 -236,74 -103,26 -203,37 -299,31 -170,6 -267,-18 -291,-70 0,-6 -1,-12 -4,-18 -3,-6 -5,-12 -5,-17l0 -158c18,-129 26,-262 23,-399 -3,-138 -2,-277 4,-417 0,-12 -1,-67 -4,-167 -3,-99 -8,-213 -14,-342 -6,-128 -12,-258 -18,-390 -6,-131 -12,-232 -18,-302 -12,-141 -12,-281 0,-421 0,-65 12,-120 36,-167 36,-99 124,-146 263,-140 49,0 94,1 136,4 43,3 85,4 127,4 158,12 303,40 436,84 133,44 260,104 381,180 73,40 142,90 209,149 67,52 116,111 150,175 33,64 62,129 86,193 12,35 23,70 32,105 9,35 22,70 41,105z"/>
  <path class="fil2" d="M3412 5473c0,29 2,92 5,189 3,96 6,206 9,329 2,122 5,242 8,359 3,117 5,208 5,272 11,135 17,266 17,395 0,128 3,260 9,394 0,53 -3,107 -9,163 -6,55 -9,109 -9,162 -5,88 -8,175 -8,263 0,88 -6,173 -18,254 -6,18 -9,44 -9,79 -11,47 -43,76 -96,88 -53,18 -105,26 -158,26 -76,6 -150,9 -224,9 -73,0 -150,0 -232,0 -29,0 -61,-6 -96,-17 -59,-6 -94,-41 -106,-106l0 -96c12,-82 19,-162 22,-241 3,-79 2,-160 -4,-242 0,-46 0,-112 0,-197 0,-85 0,-171 0,-259 0,-87 0,-168 0,-241 0,-73 0,-121 0,-144 0,-36 0,-94 0,-176 0,-82 -2,-169 -5,-263 -2,-94 -4,-184 -4,-272 0,-88 0,-152 0,-193 18,-216 22,-431 13,-644 -9,-214 -10,-429 -4,-645 0,-70 0,-162 0,-276 0,-114 -3,-225 -9,-334 -6,-108 -9,-206 -9,-293 0,-88 0,-141 0,-158 6,-41 9,-82 9,-123 0,-41 0,-82 0,-123 -6,-64 -9,-124 -9,-180 0,-55 0,-112 0,-171 0,-64 12,-105 35,-122 24,-18 71,-30 141,-35 99,-18 203,-28 311,-31 108,-3 215,1 320,13 29,6 53,20 70,44 18,23 31,50 40,79 9,29 13,57 13,83 0,26 0,45 0,57l0 290c0,35 -3,100 -9,197 -6,96 -10,205 -13,324 -3,120 -6,240 -9,360 -3,120 -4,218 -4,294 0,52 1,123 4,210 3,88 6,176 9,263 3,88 4,168 4,242 0,73 0,121 0,144z"/>
  <path class="fil2" d="M16442 5558c0,20 1,63 4,130 2,66 5,141 8,226 2,84 5,166 7,247 3,80 4,142 4,187 31,266 8,506 8,765 -5,61 -8,121 -8,181 0,60 -5,119 -15,175 -22,49 11,96 -95,114 -48,13 -95,19 -143,19 -69,4 -136,6 -202,6 -66,0 -136,0 -210,0 -26,0 -55,-4 -87,-12 -52,-4 -84,-29 -95,-73l0 -66c11,-56 18,-112 20,-166 3,-54 2,-109 -4,-166 0,-32 0,-77 0,-135 0,-59 0,-118 0,-178 0,-60 0,-116 0,-166 0,-50 0,-83 0,-99 0,-25 0,-65 0,-121 0,-56 -1,-117 -4,-181 -2,-64 -4,-126 -4,-187 0,-60 0,-104 0,-132 16,-149 20,-297 12,-443 -8,-147 -9,-295 -4,-443 0,-49 0,-112 0,-190 0,-79 -2,-155 -8,-229 -5,-75 -8,-142 -8,-202 0,-61 0,-97 0,-109 6,-28 8,-56 8,-84 0,-28 0,-57 0,-85 -5,-44 -8,-85 -8,-123 0,-38 0,-78 0,-118 0,-44 11,-72 32,-84 21,-12 63,-20 127,-24 89,-12 183,-19 281,-21 97,-2 194,1 289,9 54,8 84,46 99,84 13,35 11,61 11,96l0 199c0,24 -2,70 -7,136 -6,66 -10,141 -12,223 -3,82 -6,165 -8,247 -3,83 -4,150 -4,202 0,36 1,85 4,145 2,60 5,120 8,181 4,88 4,176 4,265z"/>
  <path class="fil0" d="M17728 5343c11,0 36,-1 73,-4 37,-2 79,-5 126,-8 47,-2 94,-5 138,-8 45,-2 80,-4 105,-4 149,-30 283,-8 428,-8 34,6 68,8 102,8 33,0 66,6 98,16 27,22 54,-11 64,95 6,48 10,95 10,143 2,68 3,136 3,202 0,66 0,135 0,209 0,27 -2,56 -7,87 -2,53 -15,85 -40,95l-37 0c-32,-10 -63,-17 -93,-19 -30,-3 -61,-2 -93,4 -18,0 -43,0 -76,0 -32,0 -65,0 -99,0 -34,0 -65,0 -93,0 -28,0 -47,0 -56,0 -13,0 -36,0 -67,0 -32,0 -65,1 -101,3 -36,3 -71,4 -105,4 -34,0 -58,0 -74,0 -83,-15 -166,-19 -248,-11 -82,7 -165,9 -248,4 -27,0 -62,0 -106,0 -44,0 -87,2 -128,7 -42,6 -80,8 -113,8 -34,0 -54,0 -61,0 -16,-5 -32,-8 -47,-8 -16,0 -32,0 -48,0 -24,6 -47,8 -69,8 -21,0 -43,0 -65,0 -25,0 -41,-10 -48,-31 -6,-21 -11,-64 -13,-127 -7,-90 -11,-183 -12,-281 -1,-98 1,-194 5,-289 5,-55 26,-84 47,-99 20,-14 34,-12 54,-12l112 0c13,0 38,3 75,8 38,5 79,9 125,12 46,3 92,5 139,8 46,3 83,4 113,4 20,0 47,-1 81,-4 33,-3 67,-5 101,-8 49,-4 99,-4 148,-4zm115 -1406c13,0 40,-1 81,-4 41,-2 88,-5 141,-8 53,-2 104,-5 154,-7 50,-3 89,-4 117,-4 166,-31 316,-8 478,-8 37,5 75,8 112,8 38,0 74,5 109,15 31,22 61,-11 72,95 7,48 11,95 11,143 3,68 4,136 4,202 0,66 0,136 0,209 0,27 -3,56 -8,88 -2,52 -17,84 -45,95l-41 0c-35,-11 -70,-18 -103,-20 -34,-3 -69,-2 -104,4 -20,0 -48,0 -85,0 -36,0 -73,0 -110,0 -38,0 -73,0 -104,0 -31,0 -52,0 -62,0 -15,0 -40,0 -75,0 -35,0 -73,1 -113,4 -40,2 -79,4 -117,4 -37,0 -65,0 -82,0 -93,-16 -185,-20 -277,-12 -91,8 -183,9 -276,4 -30,0 -70,0 -119,0 -49,0 -96,2 -143,8 -46,5 -88,8 -126,8 -37,0 -60,0 -67,0 -18,-6 -35,-8 -53,-8 -18,0 -35,0 -53,0 -27,5 -53,8 -77,8 -24,0 -48,0 -73,0 -28,0 -45,-11 -53,-32 -7,-21 -12,-63 -15,-127 -7,-89 -12,-183 -13,-281 -1,-97 1,-194 6,-289 5,-55 29,-84 52,-99 22,-13 38,-12 60,-12l125 0c15,0 43,3 84,8 42,6 88,10 139,12 52,3 103,6 155,8 51,3 93,4 126,4 22,0 52,-1 90,-4 37,-2 75,-5 113,-8 55,-4 110,-4 165,-4zm0 2812c13,0 40,-1 81,-4 41,-3 88,-5 141,-8 53,-3 104,-5 154,-8 50,-2 89,-4 117,-4 166,-30 316,-8 478,-8 37,6 75,8 112,8 38,0 74,5 109,16 31,22 61,-11 72,95 7,48 11,95 11,143 3,68 4,135 4,201 0,66 0,136 0,210 0,27 -3,56 -8,87 -2,53 -17,85 -45,95l-41 0c-35,-10 -70,-17 -103,-20 -34,-2 -69,-1 -104,4 -20,0 -48,0 -85,0 -36,0 -73,0 -110,0 -38,0 -73,0 -104,0 -31,0 -52,0 -62,0 -15,0 -40,0 -75,0 -35,0 -73,2 -113,4 -40,3 -79,4 -117,4 -37,0 -65,0 -82,0 -93,-16 -185,-20 -277,-12 -91,8 -183,10 -276,4 -30,0 -70,0 -119,0 -49,0 -96,3 -143,8 -46,6 -88,8 -126,8 -37,0 -60,0 -67,0 -18,-5 -35,-8 -53,-8 -18,0 -35,0 -53,0 -27,6 -53,8 -77,8 -24,0 -48,0 -73,0 -28,0 -45,-10 -53,-31 -7,-22 -12,-64 -15,-127 -7,-90 -12,-184 -13,-281 -1,-98 1,-194 6,-289 5,-55 29,-84 52,-99 22,-14 38,-12 60,-12l125 0c15,0 43,3 84,8 42,5 88,9 139,12 52,3 103,5 155,8 51,2 93,4 126,4 22,0 52,-2 90,-4 37,-3 75,-5 113,-8 55,-4 110,-4 165,-4z"/>
 </g>
</svg>
